<svg width="422" height="242" viewBox="0 0 422 242" fill="none" xmlns="http://www.w3.org/2000/svg">
<path d="M33.52 59.28C27.6 59.28 22.2667 58.0533 17.52 55.6C12.7733 53.0933 9.04 49.6267 6.32 45.2C3.65333 40.72 2.32 35.6533 2.32 30C2.32 24.3467 3.65333 19.3067 6.32 14.88C9.04 10.4 12.7733 6.93333 17.52 4.48C22.2667 1.97333 27.6 0.719998 33.52 0.719998C38.96 0.719998 43.8133 1.68 48.08 3.6C52.3467 5.52 55.8667 8.29333 58.64 11.92L46.72 22.56C43.2533 18.1867 39.1733 16 34.48 16C30.5333 16 27.36 17.28 24.96 19.84C22.56 22.3467 21.36 25.7333 21.36 30C21.36 34.2667 22.56 37.68 24.96 40.24C27.36 42.7467 30.5333 44 34.48 44C39.1733 44 43.2533 41.8133 46.72 37.44L58.64 48.08C55.8667 51.7067 52.3467 54.48 48.08 56.4C43.8133 58.32 38.96 59.28 33.52 59.28ZM110.59 14.24V58H93.39V53.84C91.79 55.4933 89.9233 56.7467 87.79 57.6C85.6567 58.4 83.39 58.8 80.99 58.8C75.4433 58.8 70.99 57.12 67.63 53.76C64.27 50.3467 62.59 45.2267 62.59 38.4V14.24H80.67V35.28C80.67 38.2667 81.15 40.4 82.11 41.68C83.07 42.96 84.4833 43.6 86.35 43.6C88.11 43.6 89.5767 42.9067 90.75 41.52C91.9233 40.08 92.51 37.84 92.51 34.8V14.24H110.59ZM135.729 58.8C131.996 58.8 128.316 58.4 124.689 57.6C121.063 56.8 118.129 55.76 115.889 54.48L120.849 42.56C122.876 43.7867 125.276 44.7467 128.049 45.44C130.823 46.1333 133.516 46.48 136.129 46.48C138.209 46.48 139.649 46.32 140.449 46C141.303 45.6267 141.729 45.0933 141.729 44.4C141.729 43.7067 141.196 43.2267 140.129 42.96C139.116 42.6933 137.436 42.4267 135.089 42.16C131.516 41.7333 128.476 41.2 125.969 40.56C123.463 39.8667 121.249 38.56 119.329 36.64C117.463 34.72 116.529 31.9733 116.529 28.4C116.529 25.5733 117.383 23.04 119.089 20.8C120.796 18.56 123.329 16.7733 126.689 15.44C130.103 14.1067 134.183 13.44 138.929 13.44C142.236 13.44 145.463 13.76 148.609 14.4C151.809 14.9867 154.529 15.8667 156.769 17.04L151.809 28.96C147.969 26.8267 143.756 25.76 139.169 25.76C135.223 25.76 133.249 26.4533 133.249 27.84C133.249 28.5333 133.783 29.04 134.849 29.36C135.916 29.6267 137.596 29.8933 139.889 30.16C143.463 30.5867 146.476 31.1467 148.929 31.84C151.436 32.5333 153.623 33.84 155.489 35.76C157.409 37.68 158.369 40.4267 158.369 44C158.369 46.72 157.516 49.2 155.809 51.44C154.103 53.68 151.543 55.4667 148.129 56.8C144.716 58.1333 140.583 58.8 135.729 58.8ZM196.084 56.48C193.364 58.0267 189.657 58.8 184.964 58.8C178.83 58.8 174.11 57.3333 170.804 54.4C167.497 51.4133 165.844 46.96 165.844 41.04V29.84H159.844V16.64H165.844V4.4H183.924V16.64H192.884V29.84H183.924V40.88C183.924 42.2133 184.27 43.2533 184.964 44C185.657 44.7467 186.564 45.12 187.684 45.12C189.23 45.12 190.59 44.72 191.764 43.92L196.084 56.48ZM222.589 58.8C217.735 58.8 213.362 57.84 209.469 55.92C205.629 53.9467 202.615 51.2533 200.429 47.84C198.242 44.3733 197.149 40.4533 197.149 36.08C197.149 31.7067 198.242 27.8133 200.429 24.4C202.615 20.9333 205.629 18.24 209.469 16.32C213.362 14.4 217.735 13.44 222.589 13.44C227.495 13.44 231.869 14.4 235.709 16.32C239.602 18.24 242.615 20.9333 244.749 24.4C246.935 27.8133 248.029 31.7067 248.029 36.08C248.029 40.4533 246.935 44.3733 244.749 47.84C242.615 51.2533 239.602 53.9467 235.709 55.92C231.869 57.84 227.495 58.8 222.589 58.8ZM222.589 44.72C224.669 44.72 226.375 43.9733 227.709 42.48C229.042 40.9333 229.709 38.8 229.709 36.08C229.709 33.36 229.042 31.2533 227.709 29.76C226.375 28.2667 224.669 27.52 222.589 27.52C220.509 27.52 218.802 28.2667 217.469 29.76C216.135 31.2533 215.469 33.36 215.469 36.08C215.469 38.8 216.135 40.9333 217.469 42.48C218.802 43.9733 220.509 44.72 222.589 44.72ZM311.608 13.44C316.888 13.44 321.101 15.0667 324.248 18.32C327.448 21.5733 329.048 26.48 329.048 33.04V58H310.968V36.16C310.968 31.1467 309.341 28.64 306.088 28.64C304.381 28.64 302.994 29.28 301.928 30.56C300.914 31.84 300.408 33.8667 300.408 36.64V58H282.328V36.16C282.328 31.1467 280.701 28.64 277.448 28.64C275.741 28.64 274.354 29.28 273.288 30.56C272.274 31.84 271.768 33.8667 271.768 36.64V58H253.688V14.24H270.888V18.32C274.141 15.0667 278.274 13.44 283.288 13.44C286.221 13.44 288.861 14 291.208 15.12C293.554 16.1867 295.474 17.84 296.968 20.08C298.728 17.9467 300.861 16.32 303.368 15.2C305.874 14.0267 308.621 13.44 311.608 13.44ZM384.232 36.08C384.232 36.3467 384.152 37.76 383.992 40.32H353.592C354.232 41.9733 355.299 43.2533 356.792 44.16C358.285 45.0133 360.152 45.44 362.392 45.44C364.312 45.44 365.912 45.2 367.192 44.72C368.525 44.24 369.965 43.4133 371.512 42.24L380.952 51.76C376.685 56.4533 370.312 58.8 361.832 58.8C356.552 58.8 351.912 57.84 347.912 55.92C343.912 53.9467 340.819 51.2267 338.632 47.76C336.445 44.2933 335.352 40.4 335.352 36.08C335.352 31.7067 336.419 27.8133 338.552 24.4C340.739 20.9333 343.699 18.24 347.432 16.32C351.219 14.4 355.459 13.44 360.152 13.44C364.579 13.44 368.605 14.32 372.232 16.08C375.912 17.84 378.819 20.4267 380.952 23.84C383.139 27.2533 384.232 31.3333 384.232 36.08ZM360.312 25.76C358.445 25.76 356.899 26.2667 355.672 27.28C354.445 28.2933 353.645 29.7333 353.272 31.6H367.352C366.979 29.7867 366.179 28.3733 364.952 27.36C363.725 26.2933 362.179 25.76 360.312 25.76ZM407.138 18.96C410.338 15.28 415.058 13.44 421.298 13.44V29.44C419.858 29.2267 418.524 29.12 417.298 29.12C411.111 29.12 408.018 32.2667 408.018 38.56V58H389.938V14.24H407.138V18.96ZM25.44 139.28C20.8 139.28 16.2667 138.773 11.84 137.76C7.46667 136.693 3.86667 135.28 1.04 133.52L7.12 119.76C9.78667 121.307 12.7733 122.56 16.08 123.52C19.3867 124.427 22.56 124.88 25.6 124.88C28.2133 124.88 30.08 124.64 31.2 124.16C32.32 123.627 32.88 122.853 32.88 121.84C32.88 120.667 32.1333 119.787 30.64 119.2C29.2 118.613 26.8 117.973 23.44 117.28C19.12 116.373 15.52 115.413 12.64 114.4C9.76 113.333 7.25333 111.627 5.12 109.28C2.98667 106.88 1.92 103.653 1.92 99.6C1.92 96.08 2.90667 92.88 4.88 90C6.85333 87.12 9.78667 84.8533 13.68 83.2C17.6267 81.5467 22.4 80.72 28 80.72C31.84 80.72 35.6 81.1467 39.28 82C43.0133 82.8 46.2933 84 49.12 85.6L43.44 99.28C37.9467 96.5067 32.7467 95.12 27.84 95.12C22.9867 95.12 20.56 96.2933 20.56 98.64C20.56 99.76 21.28 100.613 22.72 101.2C24.16 101.733 26.5333 102.32 29.84 102.96C34.1067 103.76 37.7067 104.693 40.64 105.76C43.5733 106.773 46.1067 108.453 48.24 110.8C50.4267 113.147 51.52 116.347 51.52 120.4C51.52 123.92 50.5333 127.12 48.56 130C46.5867 132.827 43.6267 135.093 39.68 136.8C35.7867 138.453 31.04 139.28 25.44 139.28ZM103.138 116.08C103.138 116.347 103.058 117.76 102.898 120.32H72.4981C73.1381 121.973 74.2048 123.253 75.6981 124.16C77.1915 125.013 79.0581 125.44 81.2981 125.44C83.2181 125.44 84.8181 125.2 86.0981 124.72C87.4315 124.24 88.8715 123.413 90.4181 122.24L99.8581 131.76C95.5915 136.453 89.2181 138.8 80.7381 138.8C75.4581 138.8 70.8181 137.84 66.8181 135.92C62.8181 133.947 59.7248 131.227 57.5381 127.76C55.3515 124.293 54.2581 120.4 54.2581 116.08C54.2581 111.707 55.3248 107.813 57.4581 104.4C59.6448 100.933 62.6048 98.24 66.3381 96.32C70.1248 94.4 74.3648 93.44 79.0581 93.44C83.4848 93.44 87.5115 94.32 91.1381 96.08C94.8181 97.84 97.7248 100.427 99.8581 103.84C102.045 107.253 103.138 111.333 103.138 116.08ZM79.2181 105.76C77.3515 105.76 75.8048 106.267 74.5781 107.28C73.3515 108.293 72.5515 109.733 72.1781 111.6H86.2581C85.8848 109.787 85.0848 108.373 83.8581 107.36C82.6315 106.293 81.0848 105.76 79.2181 105.76ZM126.044 98.96C129.244 95.28 133.964 93.44 140.204 93.44V109.44C138.764 109.227 137.43 109.12 136.204 109.12C130.017 109.12 126.924 112.267 126.924 118.56V138H108.844V94.24H126.044V98.96ZM195.22 94.24L177.62 138H158.9L141.3 94.24H159.86L168.66 117.68L178.1 94.24H195.22ZM197.984 94.24H216.064V138H197.984V94.24ZM207.024 90.72C203.771 90.72 201.131 89.8667 199.104 88.16C197.131 86.4 196.144 84.1867 196.144 81.52C196.144 78.8533 197.131 76.6667 199.104 74.96C201.131 73.2 203.771 72.32 207.024 72.32C210.331 72.32 212.971 73.1467 214.944 74.8C216.918 76.4533 217.904 78.5867 217.904 81.2C217.904 83.9733 216.918 86.2667 214.944 88.08C212.971 89.84 210.331 90.72 207.024 90.72ZM247.598 138.8C242.638 138.8 238.185 137.84 234.238 135.92C230.345 134 227.278 131.307 225.038 127.84C222.851 124.373 221.758 120.453 221.758 116.08C221.758 111.707 222.851 107.813 225.038 104.4C227.278 100.933 230.345 98.24 234.238 96.32C238.185 94.4 242.638 93.44 247.598 93.44C252.931 93.44 257.491 94.5867 261.278 96.88C265.065 99.1733 267.678 102.347 269.118 106.4L255.118 113.28C253.411 109.44 250.878 107.52 247.518 107.52C245.385 107.52 243.598 108.267 242.158 109.76C240.771 111.253 240.078 113.36 240.078 116.08C240.078 118.853 240.771 120.987 242.158 122.48C243.598 123.973 245.385 124.72 247.518 124.72C250.878 124.72 253.411 122.8 255.118 118.96L269.118 125.84C267.678 129.893 265.065 133.067 261.278 135.36C257.491 137.653 252.931 138.8 247.598 138.8ZM319.466 116.08C319.466 116.347 319.386 117.76 319.226 120.32H288.826C289.466 121.973 290.533 123.253 292.026 124.16C293.52 125.013 295.386 125.44 297.626 125.44C299.546 125.44 301.146 125.2 302.426 124.72C303.76 124.24 305.2 123.413 306.746 122.24L316.186 131.76C311.92 136.453 305.546 138.8 297.066 138.8C291.786 138.8 287.146 137.84 283.146 135.92C279.146 133.947 276.053 131.227 273.866 127.76C271.68 124.293 270.586 120.4 270.586 116.08C270.586 111.707 271.653 107.813 273.786 104.4C275.973 100.933 278.933 98.24 282.666 96.32C286.453 94.4 290.693 93.44 295.386 93.44C299.813 93.44 303.84 94.32 307.466 96.08C311.146 97.84 314.053 100.427 316.186 103.84C318.373 107.253 319.466 111.333 319.466 116.08ZM295.546 105.76C293.68 105.76 292.133 106.267 290.906 107.28C289.68 108.293 288.88 109.733 288.506 111.6H302.586C302.213 109.787 301.413 108.373 300.186 107.36C298.96 106.293 297.413 105.76 295.546 105.76ZM16.72 184.64H0.32V170H52V184.64H35.6V226H16.72V184.64ZM75.0888 226.8C70.2354 226.8 65.8621 225.84 61.9688 223.92C58.1288 221.947 55.1154 219.253 52.9288 215.84C50.7421 212.373 49.6488 208.453 49.6488 204.08C49.6488 199.707 50.7421 195.813 52.9288 192.4C55.1154 188.933 58.1288 186.24 61.9688 184.32C65.8621 182.4 70.2354 181.44 75.0888 181.44C79.9954 181.44 84.3688 182.4 88.2088 184.32C92.1021 186.24 95.1154 188.933 97.2488 192.4C99.4354 195.813 100.529 199.707 100.529 204.08C100.529 208.453 99.4354 212.373 97.2488 215.84C95.1154 219.253 92.1021 221.947 88.2088 223.92C84.3688 225.84 79.9954 226.8 75.0888 226.8ZM75.0888 212.72C77.1688 212.72 78.8754 211.973 80.2088 210.48C81.5421 208.933 82.2088 206.8 82.2088 204.08C82.2088 201.36 81.5421 199.253 80.2088 197.76C78.8754 196.267 77.1688 195.52 75.0888 195.52C73.0088 195.52 71.3021 196.267 69.9688 197.76C68.6354 199.253 67.9688 201.36 67.9688 204.08C67.9688 206.8 68.6354 208.933 69.9688 210.48C71.3021 211.973 73.0088 212.72 75.0888 212.72ZM135.388 181.44C139.228 181.44 142.748 182.373 145.948 184.24C149.201 186.053 151.761 188.693 153.628 192.16C155.548 195.627 156.508 199.627 156.508 204.16C156.508 208.693 155.548 212.693 153.628 216.16C151.761 219.573 149.201 222.213 145.948 224.08C142.748 225.893 139.228 226.8 135.388 226.8C130.534 226.8 126.828 225.547 124.268 223.04V241.52H106.188V182.24H123.388V185.84C126.001 182.907 130.001 181.44 135.388 181.44ZM131.068 212.72C133.148 212.72 134.854 211.973 136.188 210.48C137.521 208.987 138.188 206.88 138.188 204.16C138.188 201.44 137.521 199.333 136.188 197.84C134.854 196.293 133.148 195.52 131.068 195.52C128.988 195.52 127.281 196.293 125.948 197.84C124.614 199.333 123.948 201.44 123.948 204.16C123.948 206.88 124.614 208.987 125.948 210.48C127.281 211.973 128.988 212.72 131.068 212.72ZM191.403 181.44C195.243 181.44 198.763 182.373 201.963 184.24C205.216 186.053 207.776 188.693 209.643 192.16C211.563 195.573 212.523 199.547 212.523 204.08C212.523 208.613 211.563 212.613 209.643 216.08C207.776 219.547 205.216 222.213 201.963 224.08C198.763 225.893 195.243 226.8 191.403 226.8C186.016 226.8 182.016 225.333 179.403 222.4V226H162.203V166.64H180.283V185.2C182.843 182.693 186.55 181.44 191.403 181.44ZM187.083 212.72C189.163 212.72 190.87 211.973 192.203 210.48C193.536 208.933 194.203 206.8 194.203 204.08C194.203 201.36 193.536 199.253 192.203 197.76C190.87 196.267 189.163 195.52 187.083 195.52C185.003 195.52 183.296 196.267 181.963 197.76C180.63 199.253 179.963 201.36 179.963 204.08C179.963 206.8 180.63 208.933 181.963 210.48C183.296 211.973 185.003 212.72 187.083 212.72ZM236.725 181.44C244.405 181.44 250.272 183.173 254.325 186.64C258.378 190.053 260.405 195.333 260.405 202.48V226H243.605V220.24C241.525 224.613 237.392 226.8 231.205 226.8C227.738 226.8 224.778 226.213 222.325 225.04C219.925 223.813 218.085 222.187 216.805 220.16C215.578 218.08 214.965 215.76 214.965 213.2C214.965 208.88 216.618 205.6 219.925 203.36C223.232 201.12 228.245 200 234.965 200H242.245C241.658 196.587 238.912 194.88 234.005 194.88C232.032 194.88 230.032 195.2 228.005 195.84C225.978 196.427 224.245 197.253 222.805 198.32L217.045 186.4C219.552 184.853 222.565 183.653 226.085 182.8C229.658 181.893 233.205 181.44 236.725 181.44ZM236.645 215.92C237.925 215.92 239.072 215.573 240.085 214.88C241.098 214.187 241.845 213.147 242.325 211.76V208.72H237.845C234.165 208.72 232.325 209.947 232.325 212.4C232.325 213.413 232.698 214.267 233.445 214.96C234.245 215.6 235.312 215.92 236.645 215.92ZM298.619 181.44C304.005 181.44 308.325 183.067 311.579 186.32C314.885 189.573 316.539 194.48 316.539 201.04V226H298.459V204.16C298.459 199.147 296.672 196.64 293.099 196.64C291.072 196.64 289.419 197.36 288.139 198.8C286.912 200.187 286.299 202.4 286.299 205.44V226H268.219V182.24H285.419V186.56C287.125 184.853 289.099 183.573 291.339 182.72C293.579 181.867 296.005 181.44 298.619 181.44ZM345.351 212.56L342.471 215.68V226H324.391V166.64H342.471V194.96L355.031 182.24H376.391L358.311 201.2L377.831 226H355.991L345.351 212.56Z" fill="white"/>
</svg>
